<svg width="22" height="20" viewBox="0 0 22 20" fill="none" xmlns="http://www.w3.org/2000/svg">
<path d="M10.8401 6.67414L13.8463 9.68028L13.8606 9.52281C13.8606 7.94339 12.577 6.65983 10.9976 6.65983L10.8401 6.67414Z" fill="black"/>
<path d="M10.9976 4.7512C13.6316 4.7512 15.7693 6.88892 15.7693 9.52286C15.7693 10.1384 15.6452 10.7253 15.4305 11.2645L18.2219 14.0559C19.6629 12.8535 20.7986 11.2979 21.5 9.52286C19.8443 5.33338 15.7741 2.3654 10.9977 2.3654C9.66158 2.3654 8.38281 2.60397 7.19467 3.03341L9.25602 5.08998C9.79516 4.88004 10.3821 4.7512 10.9976 4.7512Z" fill="black"/>
<path d="M1.45431 2.15064L3.63018 4.32651L4.06442 4.76074C2.48977 5.99183 1.24438 7.62852 0.5 9.52283C2.151 13.7123 6.22597 16.6803 10.9976 16.6803C12.4769 16.6803 13.8892 16.394 15.1824 15.8739L15.588 16.2795L18.3699 19.0661L19.5866 17.8541L2.67108 0.933872L1.45431 2.15064ZM6.73178 7.42332L8.20622 8.89776C8.16327 9.10295 8.13464 9.30811 8.13464 9.52283C8.13464 11.1023 9.4182 12.3858 10.9976 12.3858C11.2124 12.3858 11.4175 12.3572 11.618 12.3142L13.0924 13.7887C12.4577 14.1036 11.7516 14.2945 10.9976 14.2945C8.36368 14.2945 6.22597 12.1568 6.22597 9.52283C6.22597 8.76892 6.41685 8.06271 6.73178 7.42332Z" fill="black"/>
</svg>
